<svg width="24" height="24" viewBox="0 0 24 24" fill="none" xmlns="http://www.w3.org/2000/svg">
<path fill-rule="evenodd" clip-rule="evenodd" d="M9.23178 6.35982C9.42177 6.13182 9.70322 6 10 6H19.5C19.7968 6 20.0782 6.13182 20.2682 6.35982L22.7682 9.35982C22.918 9.53953 23 9.76606 23 10V15C23 15.5523 22.5523 16 22 16H20V14H21V10.362L19.0316 8H10.4684L8.26822 10.6402C8.11814 10.8203 7.90954 10.9419 7.67889 10.9839L3.41056 11.7599C3.17281 11.8032 3 12.0102 3 12.2519V14H4V16H2C1.44772 16 1 15.5523 1 15V12.2519C1 11.0436 1.86406 10.0083 3.05279 9.79219L6.96409 9.08104L9.23178 6.35982ZM8 14H16V16H8V14Z" fill="black"/>
<path fill-rule="evenodd" clip-rule="evenodd" d="M6 14C5.44772 14 5 14.4477 5 15C5 15.5523 5.44772 16 6 16C6.55228 16 7 15.5523 7 15C7 14.4477 6.55228 14 6 14ZM3 15C3 13.3431 4.34315 12 6 12C7.65685 12 9 13.3431 9 15C9 16.6569 7.65685 18 6 18C4.34315 18 3 16.6569 3 15Z" fill="black"/>
<path fill-rule="evenodd" clip-rule="evenodd" d="M18 14C17.4477 14 17 14.4477 17 15C17 15.5523 17.4477 16 18 16C18.5523 16 19 15.5523 19 15C19 14.4477 18.5523 14 18 14ZM15 15C15 13.3431 16.3431 12 18 12C19.6569 12 21 13.3431 21 15C21 16.6569 19.6569 18 18 18C16.3431 18 15 16.6569 15 15Z" fill="black"/>
</svg>
