<svg width="24" height="24" viewBox="0 0 24 24" fill="none" xmlns="http://www.w3.org/2000/svg">
<path fill-rule="evenodd" clip-rule="evenodd" d="M3 5C3 4.44772 3.44772 4 4 4H20C20.5523 4 21 4.44772 21 5V22C21 22.5523 20.5523 23 20 23H4C3.44772 23 3 22.5523 3 22V5ZM5 6V21H19V6H5Z" fill="black"/>
<path fill-rule="evenodd" clip-rule="evenodd" d="M3 4C3 2.34315 4.34315 1 6 1H20V3H6C5.44772 3 5 3.44772 5 4V5H3V4Z" fill="black"/>
<path fill-rule="evenodd" clip-rule="evenodd" d="M12 9.5C10.067 9.5 8.5 11.067 8.5 13C8.5 14.933 10.067 16.5 12 16.5C13.933 16.5 15.5 14.933 15.5 13C15.5 11.067 13.933 9.5 12 9.5ZM6.5 13C6.5 9.96243 8.96243 7.5 12 7.5C15.0376 7.5 17.5 9.96243 17.5 13C17.5 16.0376 15.0376 18.5 12 18.5C8.96243 18.5 6.5 16.0376 6.5 13Z" fill="black"/>
<path fill-rule="evenodd" clip-rule="evenodd" d="M11.8757 10.5227C11.6562 11.108 11.5 11.9836 11.5 13C11.5 14.0164 11.6562 14.892 11.8757 15.4773C11.9182 15.5908 11.9603 15.6857 12 15.7642C12.0397 15.6857 12.0818 15.5908 12.1243 15.4773C12.3438 14.892 12.5 14.0164 12.5 13C12.5 11.9836 12.3438 11.108 12.1243 10.5227C12.0818 10.4092 12.0397 10.3143 12 10.2358C11.9603 10.3143 11.9182 10.4092 11.8757 10.5227ZM11.8056 16.0526C11.8056 16.0526 11.8063 16.052 11.8075 16.0511C11.8063 16.0522 11.8056 16.0526 11.8056 16.0526ZM12.1925 16.0511C12.1938 16.052 12.1944 16.0526 12.1944 16.0526C12.1944 16.0526 12.1938 16.0522 12.1925 16.0511ZM12.1925 9.94891C12.1937 9.94784 12.1944 9.94737 12.1944 9.94741C12.1944 9.94744 12.1938 9.94798 12.1925 9.94891ZM10.6679 8.65093C10.9563 8.32556 11.4042 8 12 8C12.5958 8 13.0437 8.32556 13.3321 8.65093C13.6216 8.97747 13.8367 9.39292 13.997 9.82045C14.3204 10.6829 14.5 11.8073 14.5 13C14.5 14.1927 14.3204 15.3171 13.997 16.1796C13.8367 16.6071 13.6216 17.0225 13.3321 17.3491C13.0437 17.6744 12.5958 18 12 18C11.4042 18 10.9563 17.6744 10.6679 17.3491C10.3784 17.0225 10.1633 16.6071 10.003 16.1796C9.67959 15.3171 9.5 14.1927 9.5 13C9.5 11.8073 9.67959 10.6829 10.003 9.82045C10.1633 9.39292 10.3784 8.97747 10.6679 8.65093ZM11.8075 9.94891C11.8062 9.94798 11.8056 9.94744 11.8056 9.94741C11.8056 9.94737 11.8063 9.94784 11.8075 9.94891Z" fill="black"/>
<path fill-rule="evenodd" clip-rule="evenodd" d="M6.5 13C6.5 12.4477 6.94772 12 7.5 12H16.5C17.0523 12 17.5 12.4477 17.5 13C17.5 13.5523 17.0523 14 16.5 14H7.5C6.94772 14 6.5 13.5523 6.5 13Z" fill="black"/>
</svg>
