<svg width="24" height="24" viewBox="0 0 24 24" fill="none" xmlns="http://www.w3.org/2000/svg">
<path fill-rule="evenodd" clip-rule="evenodd" d="M12 3C11.7659 3 11.5519 3.13226 11.4472 3.34164L10.0298 6.1764L11.8682 20.8837C11.8765 20.9501 11.933 21 12 21C12.067 21 12.1235 20.9501 12.1318 20.8837L13.9702 6.1764L12.5528 3.34164C12.4481 3.13226 12.2341 3 12 3ZM9.65836 2.44721C10.1018 1.56026 11.0084 1 12 1C12.9916 1 13.8982 1.56027 14.3416 2.44721L15.8944 5.55279C15.9827 5.72937 16.0168 5.92813 15.9923 6.12403L14.1163 21.1318C13.9829 22.1991 13.0756 23 12 23C10.9244 23 10.0171 22.1991 9.88369 21.1318L8.00772 6.12403C7.98324 5.92813 8.01728 5.72937 8.10557 5.55279L9.65836 2.44721Z" fill="darkblue"/>
<path fill-rule="evenodd" clip-rule="evenodd" d="M9.89443 6.55276C10.1414 7.04674 9.94119 7.64741 9.44721 7.8944L3 11.118V12.5H9.5C10.0523 12.5 10.5 12.9477 10.5 13.5C10.5 14.0523 10.0523 14.5 9.5 14.5H2C1.44772 14.5 1 14.0523 1 13.5V10.5C1 10.1212 1.214 9.77494 1.55279 9.60555L8.55279 6.10555C9.04676 5.85856 9.64744 6.05878 9.89443 6.55276Z" fill="darkblue"/>
<path fill-rule="evenodd" clip-rule="evenodd" d="M14.1056 6.55276C13.8586 7.04674 14.0588 7.64741 14.5528 7.8944L21 11.118V12.5H14.5C13.9477 12.5 13.5 12.9477 13.5 13.5C13.5 14.0523 13.9477 14.5 14.5 14.5H22C22.5523 14.5 23 14.0523 23 13.5V10.5C23 10.1212 22.786 9.77494 22.4472 9.60555L15.4472 6.10555C14.9532 5.85856 14.3526 6.05878 14.1056 6.55276Z" fill="darkblue"/>
<path fill-rule="evenodd" clip-rule="evenodd" d="M11.4762 18.783C11.596 19.3222 11.2561 19.8563 10.7169 19.9762L7 20.8021V21H12C12.5523 21 13 21.4477 13 22C13 22.5523 12.5523 23 12 23H6C5.44772 23 5 22.5523 5 22V20C5 19.5313 5.32553 19.1255 5.78307 19.0238L10.2831 18.0238C10.8222 17.904 11.3564 18.2439 11.4762 18.783Z" fill=" darkblue"/>
<path fill-rule="evenodd" clip-rule="evenodd" d="M12.5238 18.783C12.404 19.3222 12.7439 19.8563 13.2831 19.9762L17 20.8021V21H12C11.4477 21 11 21.4477 11 22C11 22.5523 11.4477 23 12 23H18C18.5523 23 19 22.5523 19 22V20C19 19.5313 18.6745 19.1255 18.2169 19.0238L13.7169 18.0238C13.1778 17.904 12.6436 18.2439 12.5238 18.783Z" fill=" darkblue"/>
</svg>
